<svg xmlns="http://www.w3.org/2000/svg" width="25" height="24" fill="none"  xmlns:v="https://vecta.io/nano"><g clip-path="url(#A)"><path d="M12.977 0c-6.624 0-12 5.376-12 12s5.376 12 12 12 12-5.376 12-12-5.376-12-12-12h0zm4.332 7.608a2.31 2.31 0 0 1 2.316 2.316 2.31 2.31 0 1 1-4.632 0c-.012-1.284 1.032-2.316 2.316-2.316h0zm-7.2-1.896a2.84 2.84 0 0 1 2.832 2.832 2.84 2.84 0 0 1-2.832 2.832 2.84 2.84 0 0 1-2.832-2.832 2.82 2.82 0 0 1 2.832-2.832zm0 10.956v4.5c-2.88-.9-5.16-3.12-6.168-5.952 1.26-1.344 4.404-2.028 6.168-2.028.636 0 1.44.096 2.28.264-1.968 1.044-2.28 2.424-2.28 3.216zm2.868 4.932a8.22 8.22 0 0 1-.948-.048v-4.884c0-1.704 3.528-2.556 5.28-2.556 1.284 0 3.504.468 4.608 1.38-1.404 3.564-4.872 6.108-8.94 6.108h0z" fill="#232930"/></g><defs><clipPath id="A"><path fill="#fff" transform="translate(.977)" d="M0 0h24v24H0z"/></clipPath></defs></svg>