<svg xmlns="http://www.w3.org/2000/svg" width="25" height="24" fill="none"  xmlns:v="https://vecta.io/nano"><g clip-path="url(#A)"><path d="M12.977 0c-6.624 0-12 5.376-12 12s5.376 12 12 12 12-5.376 12-12-5.376-12-12-12zm0 3.6c1.992 0 3.6 1.608 3.6 3.6s-1.608 3.6-3.6 3.6-3.6-1.608-3.6-3.6 1.608-3.6 3.6-3.6zm0 17.04a8.64 8.64 0 0 1-7.2-3.864c.036-2.388 4.8-3.696 7.2-3.696 2.388 0 7.164 1.308 7.2 3.696a8.64 8.64 0 0 1-7.2 3.864z" fill="#f4691b"/></g><defs><clipPath id="A"><path fill="#fff" transform="translate(.977)" d="M0 0h24v24H0z"/></clipPath></defs></svg>