<svg xmlns="http://www.w3.org/2000/svg" width="17" height="16" fill="none"  xmlns:v="https://vecta.io/nano"><g clip-path="url(#A)" fill="#fff"><path d="M9.08 5.938c-.9 0-1.632.73-1.632 1.632A1.63 1.63 0 0 0 9.08 9.202a1.632 1.632 0 1 0 0-3.264zm0 2.487c-.472 0-.855-.383-.855-.855s.383-.855.855-.855.855.383.855.855-.383.855-.855.855zm6.5-6.218L4.98 1.003a1.45 1.45 0 0 0-1.146.33c-.317.246-.52.6-.563 1l-.194 1.593h-.602C1.62 3.926.98 4.684.98 5.54v7.947C.956 14.3 1.6 15 2.415 15H13.14c.855 0 1.632-.66 1.632-1.515v-.3a1.93 1.93 0 0 0 .738-.31 1.61 1.61 0 0 0 .563-1.05l.894-7.888c.1-.857-.524-1.628-1.38-1.73zm-1.593 11.3c0 .428-.428.738-.855.738H2.474a.7.7 0 0 1-.72-.679l.001-.06v-1.438l3.012-2.215c.362-.278.87-.253 1.205.058L8.1 11.766a1.83 1.83 0 0 0 1.146.427c.328.004.65-.083.933-.253l3.828-2.215v3.77zm0-4.683L9.76 11.28a.99.99 0 0 1-1.146-.097L6.476 9.3a1.73 1.73 0 0 0-2.157-.078l-2.565 1.865V5.55c0-.427.3-.835.72-.835H13.14c.457.02.825.38.855.835v3.264zm2.196-4.982l-.914 7.896a.66.66 0 0 1-.253.525c-.078.078-.253.117-.253.155V5.55a1.67 1.67 0 0 0-1.632-1.613H3.853l.175-1.516c.038-.196.14-.374.3-.505.17-.118.376-.173.583-.155l10.6 1.224c.427.04.74.42.7.847z"/></g><defs><clipPath id="A"><path fill="#fff" transform="translate(.977)" d="M0 0h16v16H0z"/></clipPath></defs></svg>