<svg xmlns="http://www.w3.org/2000/svg" width="19" height="14" fill="none"  xmlns:v="https://vecta.io/nano"><g clip-path="url(#A)"><path d="M7.277 7c1.988 0 3.6-1.567 3.6-3.5S9.266 0 7.277 0s-3.6 1.567-3.6 3.5S5.29 7 7.277 7zm2.52.875h-.47a5.02 5.02 0 0 1-2.05.438 5.03 5.03 0 0 1-2.05-.437h-.47C2.67 7.875.977 9.52.977 11.55v1.137c0 .725.605 1.313 1.35 1.313h7.732a1.28 1.28 0 0 1-.073-.582l.19-1.665.034-.303 2.396-2.33c-.69-.757-1.687-1.244-2.8-1.244h0zm1.274 3.973l-.19 1.668c-.03.28.21.514.495.48l1.713-.186 3.88-3.77-2.017-1.96-3.878 3.768zm7.71-4.495l-1.066-1.036a.69.69 0 0 0-.951 0l-1.178 1.146 2.02 1.96L18.78 8.28c.262-.257.262-.67 0-.927h0z" fill="#fff"/></g><defs><clipPath id="A"><path fill="#fff" transform="translate(.977)" d="M0 0h18v14H0z"/></clipPath></defs></svg>