<svg xmlns="http://www.w3.org/2000/svg" width="17" height="16" fill="#fff"  xmlns:v="https://vecta.io/nano"><path d="M13.936 3.737h-1.75a.29.29 0 0 1-.277-.198L11.725 3c-.2-.592-.755-1-1.384-1H7.613c-.63 0-1.185.398-1.383 1l-.184.55a.29.29 0 0 1-.277.198H4.02c-1.126 0-2.042.9-2.042 2.026v5.2C1.977 12.1 2.893 13 4.02 13h9.917c1.126 0 2.042-.9 2.042-2.026v-5.2c0-1.117-.916-2.026-2.042-2.026zm1.458 7.237c0 .798-.655 1.447-1.458 1.447H4.02c-.804 0-1.458-.65-1.458-1.447v-5.2c0-.798.655-1.447 1.458-1.447h1.75c.377 0 .7-.24.83-.593l.185-.55c.12-.355.453-.593.83-.593h2.728c.377 0 .7.24.83.594l.184.55c.12.355.453.593.83.593h1.75c.804 0 1.458.65 1.458 1.447v5.2zm-6.417-6.08c-1.93 0-3.5 1.558-3.5 3.474s1.57 3.474 3.5 3.474 3.5-1.558 3.5-3.474-1.57-3.474-3.5-3.474zm0 6.368A2.91 2.91 0 0 1 6.06 8.368a2.91 2.91 0 0 1 2.917-2.895 2.91 2.91 0 0 1 2.917 2.895 2.91 2.91 0 0 1-2.917 2.895zm0-5.2c-1.287 0-2.333 1.04-2.333 2.316a.292.292 0 1 0 .583 0c0-.958.785-1.737 1.75-1.737a.29.29 0 0 0 .292-.289.29.29 0 0 0-.292-.289z"/></svg>