<svg xmlns="http://www.w3.org/2000/svg" xmlns:xlink="http://www.w3.org/1999/xlink" width="17" height="16" fill="none" xmlns:v="https://vecta.io/nano"><g clip-path="url(#A)" fill="#fff"><use xlink:href="#B"/><path d="M6.763 5.797c-.207 0-.375.168-.375.375v7.082c0 .207.168.375.375.375s.375-.168.375-.375V6.172c0-.207-.168-.375-.375-.375zM3.54 4.763v9.232c0 .546.2 1.058.55 1.426s.832.578 1.34.58h7.1a1.81 1.81 0 0 0 1.34-.58c.35-.38.55-.88.55-1.426V4.763a1.43 1.43 0 0 0-.367-2.815H12.12V1.48A1.47 1.47 0 0 0 10.637 0H7.3a1.47 1.47 0 0 0-1.484 1.48v.468H3.908a1.43 1.43 0 0 0-.367 2.815h0zm8.978 10.487h-7.1c-.64 0-1.14-.55-1.14-1.255v-9.2h9.368v9.2c0 .705-.498 1.255-1.14 1.255zM6.575 1.48A.72.72 0 0 1 7.31.749h3.327a.72.72 0 0 1 .735.731v.468H6.575V1.48zM3.908 2.698H14.04c.373 0 .675.302.675.674s-.302.674-.675.674H3.908c-.373 0-.674-.302-.674-.674s.302-.674.674-.674h0zm5.066 3.1c-.207 0-.375.168-.375.375v7.082c0 .207.168.375.375.375s.375-.168.375-.375V6.172c0-.207-.168-.375-.375-.375z"/></g><defs><clipPath id="A"><path fill="#fff" transform="translate(.977)" d="M0 0h16v16H0z"/></clipPath><path id="B" d="M11.184 5.797c-.207 0-.375.168-.375.375v7.082c0 .207.168.375.375.375s.375-.168.375-.375V6.172c0-.207-.168-.375-.375-.375z"/></defs></svg>