<svg xmlns="http://www.w3.org/2000/svg" width="53" height="52" fill="none"  xmlns:v="https://vecta.io/nano"><g clip-path="url(#A)"><path d="M26.977 0c-14.336 0-26 11.665-26 26 0 14.358 11.643 26 26 26 14.336 0 26-11.664 26-26 0-14.36-11.64-26-26-26zm0 39.125a11.75 11.75 0 0 1-11.75-11.75 11.75 11.75 0 0 1 11.75-11.75h.526l-1.764-1.762a1.75 1.75 0 0 1 0-2.475 1.75 1.75 0 0 1 2.475 0l5 5a1.75 1.75 0 0 1 .513 1.238 1.75 1.75 0 0 1-.513 1.238l-5 5a1.75 1.75 0 0 1-2.475 0 1.75 1.75 0 0 1 0-2.475l2.25-2.25c-.297-.012-.637-.012-1.012-.012a8.25 8.25 0 0 0-7.622 5.093 8.25 8.25 0 0 0 1.788 8.991 8.25 8.25 0 0 0 8.991 1.788 8.25 8.25 0 0 0 5.093-7.622 1.75 1.75 0 0 1 1.75-1.75 1.75 1.75 0 0 1 1.75 1.75c-.004 3.115-1.243 6.102-3.446 8.304s-5.19 3.442-8.304 3.446z" fill="#f4691b"/></g><defs><clipPath id="A"><path fill="#fff" transform="translate(.977)" d="M0 0h52v52H0z"/></clipPath></defs></svg>