<svg xmlns="http://www.w3.org/2000/svg" xmlns:xlink="http://www.w3.org/1999/xlink" width="204" height="199" fill="none" xmlns:v="https://vecta.io/nano"><style><![CDATA[.B{mask:url(#A)}]]></style><path d="M13 0l178 78.773L13 158V0z" fill="#191b1e"/><path d="M70.093 124.498l-16.378 7.26-13.222-35.846v41.745l-19.257 8.565V11.58l19.257 8.555v37.66l11.2-32.69 17.94 7.93 10.6 66.91 9.247-58.127 41.268 18.292v8.45l-23.842-10.56-.99 6.248 24.833 11.032V97.5l-32.43 14.492 2.955-18.585 16.187-7.27L98.33 77.64l-5.882 36.915-21.84 9.708-13.26-68.053-6.492 18.434 19.238 49.856z" fill="#fff"/><path d="M137.634 63.166l35.243 15.588L137.634 94.4V63.166z" fill="#f4691b"/><path d="M12.988 163.217l177.984-79.093v35L12.988 198.17v-34.954z" fill="#191b1e"/><mask id="A" maskUnits="userSpaceOnUse" x="26.533" y="104.456" width="150" height="77" fill="#000"><path fill="#fff" d="M26.533 104.456h150v77h-150z"/><use xlink:href="#C"/><use xlink:href="#D"/><use xlink:href="#E"/><use xlink:href="#F"/><use xlink:href="#G"/><use xlink:href="#H"/><use xlink:href="#I"/><use xlink:href="#J"/><use xlink:href="#K"/><use xlink:href="#L"/><use xlink:href="#M"/></mask><g fill="#fff"><use xlink:href="#C"/><use xlink:href="#D"/><use xlink:href="#E"/><use xlink:href="#F"/><use xlink:href="#G"/><use xlink:href="#H"/><use xlink:href="#I"/><use xlink:href="#J"/><use xlink:href="#K"/><use xlink:href="#L"/><use xlink:href="#M"/></g><g stroke="#fff" stroke-width="1.6" class="B"><use xlink:href="#C"/><use xlink:href="#D"/><use xlink:href="#E"/><use xlink:href="#F"/><use xlink:href="#G"/><use xlink:href="#H"/><use xlink:href="#I"/><use xlink:href="#J"/><use xlink:href="#K"/><use xlink:href="#L"/><use xlink:href="#M"/></g><defs ><path id="C" d="M33.943 179.816l2.083-.927-2.295-5.155 4.687-2.087-.82-1.84-4.687 2.087-1.476-3.315 5.728-2.55-.82-1.84-7.81 3.477 5.4 12.15z"/><path id="D" d="M50.424 172.666c3.21-1.43 4.422-4.548 2.807-8.176l-.402-.903c-1.623-3.645-4.708-4.83-7.954-3.384-3.21 1.43-4.415 4.566-2.807 8.176l.402.902c1.623 3.645 4.708 4.83 7.954 3.385zm-.866-1.944c-1.875.834-3.78.103-4.902-2.414l-.402-.903c-1.136-2.55-.423-4.408 1.486-5.258 1.857-.827 3.79-.085 4.902 2.414l.402.903c1.136 2.55.406 4.415-1.486 5.258z"/><path id="E" d="M67 165.1l2.36-1.05-4.814-3.805c1.273-1.253 1.46-2.793.742-4.407-1.05-2.36-3.108-3.15-6.354-1.705l-4.183 1.862 5.4 12.15 2.083-.928-2.04-4.582 2.517-1.12L67 165.1zm-7.246-9.128c1.736-.773 2.815-.36 3.348.84.525 1.18.102 2.284-1.617 3.05l-2.1.935-1.73-3.888 2.1-.935z"/><path id="F" d="M80.124 159.255l4.426-1.97c3.21-1.43 3.885-3.186 2.865-5.477-.556-1.25-1.62-2.003-3.16-1.962.81-1.027.905-2.17.434-3.23-.927-2.082-2.683-2.757-5.894-1.327l-4.08 1.816 5.4 12.15zm2.023-7.368c1.65-.735 2.502-.407 3.043.808.55 1.232.22 2.085-1.428 2.82l-2.343 1.044-1.615-3.628 2.343-1.043zm-2.565-4.827c1.65-.735 2.502-.407 2.966.634.47 1.06.144 1.912-1.505 2.646l-1.996.89-1.46-3.28 1.996-.888z"/><path id="G" d="M98.16 151.412c3.02-1.344 4.04-4.003 2.588-7.267l-3.207-7.203-2.083.927 3.207 7.204c.95 2.135.365 3.622-1.37 4.395-1.718.765-3.25.178-4.184-1.922l-3.207-7.204-2.083.928 3.207 7.203c1.468 3.298 4.077 4.3 7.132 2.94z"/><path id="H" d="M111.88 145.304c3.14-1.4 3.958-3.49 3.023-5.59-2.07-4.652-8.145.11-9.296-2.475-.356-.798.01-1.752 1.572-2.447 1.528-.68 2.348-.38 3.088.955l2.22-.99c-1.332-2.527-3.206-3.232-6.157-1.918-2.968 1.322-3.785 3.412-2.92 5.356 1.986 4.46 8.083-.25 9.288 2.457.402.903-.027 1.947-1.693 2.688-1.597.71-2.535.38-3.39-1.215l-2.222 1c1.457 2.804 3.466 3.53 6.486 2.187z"/><path id="I" d="M120.842 141.126l2.083-.927-5.4-12.15-2.082.927 5.41 12.15z"/><path id="J" d="M134.84 134.893l2.916-1.298-5.41-12.15-2.083.927 4.266 9.582-1.44-1.273-7.72-6.13-2.916 1.298 5.4 12.15 2.083-.927-4.258-9.564 1.432 1.255 7.72 6.13z"/><path id="K" d="M142.617 131.432l7.81-3.478-.82-1.84-5.727 2.55-1.554-3.488 4.687-2.087-.82-1.84-4.687 2.087-1.4-3.142 5.728-2.55-.82-1.84-7.81 3.477 5.4 12.15z"/><path id="L" d="M158.908 124.365c3.142-1.398 3.958-3.488 3.023-5.588-2.07-4.652-8.145.11-9.296-2.475-.356-.8.01-1.752 1.573-2.447 1.527-.68 2.347-.38 3.087.954l2.222-.99c-1.333-2.526-3.207-3.23-6.158-1.917-2.968 1.32-3.784 3.41-2.92 5.355 1.986 4.46 8.083-.25 9.29 2.458.402.902-.028 1.946-1.694 2.688-1.597.71-2.535.38-3.39-1.215l-2.22.99c1.456 2.804 3.465 3.532 6.485 2.187z"/><path id="M" d="M171.932 118.567c3.142-1.4 3.958-3.49 3.023-5.59-2.07-4.652-8.144.11-9.296-2.475-.355-.798.01-1.752 1.573-2.447 1.527-.68 2.347-.38 3.087.955l2.222-.99c-1.333-2.527-3.207-3.232-6.158-1.918-2.968 1.322-3.784 3.41-2.92 5.355 1.986 4.46 8.083-.25 9.29 2.458.402.903-.028 1.946-1.694 2.688-1.597.71-2.535.38-3.4-1.215l-2.222.99c1.456 2.805 3.465 3.532 6.485 2.188z"/></defs></svg>